<svg width="254.23999568394254" height="64.8" viewBox="0 0 254.23999568394254 64.8" xmlns="http://www.w3.org/2000/svg">
    <g transform="matrix(3.0856473041983374,0,0,3.0856473041983374,-6.171373325690784,-6.1698442238608315)" fill="#0C056D">
        <g xmlns="http://www.w3.org/2000/svg">
            <path d="M2.2427,8.9287a.5.5,0,0,1,0-.8574l10-6a.4971.4971,0,0,1,.5146,0l10,6a.5.5,0,0,1,0,.8574l-10,6a.5.5,0,0,1-.5146,0Zm20,3.1426L12.5,17.917,2.7573,12.0713a.5.5,0,0,0-.5146.8574l10,6a.5.5,0,0,0,.5146,0l10-6a.5.5,0,0,0-.5146-.8574Zm0,4L12.5,21.917,2.7573,16.0713a.5.5,0,0,0-.5146.8574l10,6a.5.5,0,0,0,.5146,0l10-6a.5.5,0,0,0-.5146-.8574Z"></path>
        </g>
    </g>
    <g transform="matrix(2.500000066227385,0,0,2.500000066227385,81.99999920527138,0.49999675485814166)" fill="#0C056D">
        <path d="M8.92 12.24 c1.48 0.4 2.88 1.72 2.88 3.66 c0 2.54 -1.6 4.1 -5.08 4.1 l-5.52 0 l0 -14 l5.22 0 c2.9 0 4.36 1.64 4.36 3.52 c0 1.48 -0.96 2.32 -1.86 2.72 z M6.14 8.56 l-2.02 0 l0 2.82 l2.02 0 c1.24 0 1.74 -0.58 1.74 -1.42 c0 -0.9 -0.58 -1.4 -1.74 -1.4 z M6.56 17.44 c1.6 0 2.32 -0.66 2.32 -1.9 c0 -1.06 -0.72 -1.8 -2.44 -1.8 l-2.32 0 l0 3.7 l2.44 0 z M16.62 6 l0 14 l-2.92 0 l0 -14 l2.92 0 z M32.2 12.559999999999999 c0.62 4.7 -2.44 7.64 -6.22 7.64 c-3.98 0 -7.26 -2.94 -7.26 -7.2 s3.36 -7.2 7.26 -7.2 c1.86 0 3.5 0.6 4.7 1.66 l-1.76 1.98 c-0.74 -0.52 -1.74 -0.9 -2.76 -0.9 c-2.54 0 -4.4 1.86 -4.4 4.46 s1.8 4.46 4.22 4.46 c1.84 0 3.12 -0.66 3.52 -2.42 l-3.3 0 l0 -2.48 l6 0 z"></path>
    </g>
    <g transform="matrix(2.5714285714285716,0,0,2.5714285714285716,166.91428559167045,-0.4285714285714306)" fill="#0C056D">
        <path d="M5.46 6 c3.14 0 4.8 1.94 4.8 4.3 c0 2.42 -1.66 4.34 -4.8 4.34 l-3.68 0 l0 5.36 l-0.58 0 l0 -14 l4.26 0 z M5.54 14.04 c2.52 0 4.14 -1.46 4.14 -3.74 c0 -2.32 -1.62 -3.72 -4.14 -3.72 l-3.76 0 l0 7.46 l3.76 0 z M12.74 6 l0 14 l-0.58 0 l0 -14 l0.58 0 z M19.400000000000002 6 c3.14 0 4.8 1.94 4.8 4.3 c0 2.42 -1.66 4.34 -4.8 4.34 l-3.68 0 l0 5.36 l-0.58 0 l0 -14 l4.26 0 z M19.48 14.04 c2.52 0 4.14 -1.46 4.14 -3.74 c0 -2.32 -1.62 -3.72 -4.14 -3.72 l-3.76 0 l0 7.46 l3.76 0 z M26.680000000000003 19.42 l7.28 0 l0 0.58 l-7.68 0 l-0.18 0 l0 -14 l0.58 0 l7.1 0 l0 0.58 l-7.1 0 l0 6.1 l5.66 0 l0 0.58 l-5.66 0 l0 6.16 z"></path>
    </g>
</svg>
